<svg width="32" height="32" viewBox="0 0 32 32" fill="none" xmlns="http://www.w3.org/2000/svg">
<rect width="32" height="32" fill="#00BBD4"/>
<circle cx="16.9715" cy="12.9051" r="5.47706" stroke="white" stroke-width="1.5"/>
<path d="M26.6266 4C26.6266 3.58579 26.2908 3.25 25.8766 3.25H19.1266C18.7123 3.25 18.3766 3.58579 18.3766 4C18.3766 4.41421 18.7123 4.75 19.1266 4.75H25.1266V10.75C25.1266 11.1642 25.4623 11.5 25.8766 11.5C26.2908 11.5 26.6266 11.1642 26.6266 10.75V4ZM21.0601 9.87707L26.4069 4.53033L25.3462 3.46967L19.9995 8.81641L21.0601 9.87707Z" fill="white"/>
<circle cx="12.2271" cy="15.5738" r="5.47706" stroke="white" stroke-width="1.5"/>
<line x1="12.2357" y1="21.2793" x2="12.2357" y2="28.3959" stroke="white" stroke-width="1.5"/>
<line x1="8.87657" y1="25.3042" x2="15.9932" y2="25.3042" stroke="white" stroke-width="1.5"/>
</svg>
