<svg width="192" height="192" viewBox="0 0 192 192" fill="none" xmlns="http://www.w3.org/2000/svg">
<rect width="192" height="192" fill="#00BBD4"/>
<circle cx="101.266" cy="79.8571" r="27.8673" stroke="white" stroke-width="7"/>
<path d="M149.623 35C149.623 33.067 148.056 31.5 146.123 31.5L114.623 31.5C112.69 31.5 111.123 33.067 111.123 35C111.123 36.933 112.69 38.5 114.623 38.5L142.623 38.5L142.623 66.5C142.623 68.433 144.19 70 146.123 70C148.056 70 149.623 68.433 149.623 66.5L149.623 35ZM121.665 64.4078L148.598 37.4749L143.649 32.5251L116.716 59.458L121.665 64.4078Z" fill="white"/>
<circle cx="77.3673" cy="93.3003" r="27.8673" stroke="white" stroke-width="7"/>
<line x1="76.1329" y1="122.04" x2="76.1329" y2="157.889" stroke="white" stroke-width="7"/>
<line x1="58.4901" y1="142.593" x2="94.3384" y2="142.593" stroke="white" stroke-width="7"/>
</svg>
